<svg width="128" height="128" viewBox="0 0 128 128" fill="none" xmlns="http://www.w3.org/2000/svg">
<rect width="128" height="128" fill="black"/>
<path d="M79 26C80.6569 26 82 27.3431 82 29C82 30.6569 80.6569 32 79 32C77.3431 32 76 30.6569 76 29C76 27.3431 77.3431 26 79 26Z" fill="white" stroke="white"/>
<path d="M79 29H98C98.5523 29 99 29.4477 99 30V49" stroke="white" stroke-width="7"/>
<path d="M99 46C100.657 46 102 47.3431 102 49C102 50.6569 100.657 52 99 52C97.3431 52 96 50.6569 96 49C96 47.3431 97.3431 46 99 46Z" fill="white" stroke="white"/>
<path d="M49 102C47.3431 102 46 100.657 46 99C46 97.3431 47.3431 96 49 96C50.6569 96 52 97.3431 52 99C52 100.657 50.6569 102 49 102Z" fill="white" stroke="white"/>
<path d="M49 99H30C29.4477 99 29 98.5523 29 98L29 79" stroke="white" stroke-width="7"/>
<path d="M29 82C27.3431 82 26 80.6569 26 79C26 77.3431 27.3431 76 29 76C30.6569 76 32 77.3431 32 79C32 80.6569 30.6569 82 29 82Z" fill="white" stroke="white"/>
<path d="M52.7841 81H60.1648V68.625H65.5511L72.1648 81H80.3125L72.8977 67.4318C76.8693 65.7273 79.0682 62.267 79.0682 57.4943C79.0682 50.5568 74.483 46.0909 66.5568 46.0909H52.7841V81ZM60.1648 62.6932V52.125H65.142C69.4034 52.125 71.4659 54.017 71.4659 57.4943C71.4659 60.9545 69.4034 62.6932 65.1761 62.6932H60.1648Z" fill="white"/>
</svg>
